<?xml version="1.0" encoding="UTF-8" standalone="no"?>
<svg
   style="fill-opacity:1; color-rendering:auto; color-interpolation:auto; text-rendering:auto; stroke:black; stroke-linecap:square; stroke-miterlimit:10; shape-rendering:auto; stroke-opacity:1; fill:black; stroke-dasharray:none; font-weight:normal; stroke-width:1; font-family:'Dialog'; font-style:normal; stroke-linejoin:miter; font-size:12px; stroke-dashoffset:0; image-rendering:auto;"
   width="1058"
   height="312"
   version="1.1"
   id="svg1881"
   sodipodi:docname="PFR_for_VKOGA_Poster.svg"
   inkscape:version="1.2.2 (1:1.2.2+202212051550+b0a8486541)"
   xmlns:inkscape="http://www.inkscape.org/namespaces/inkscape"
   xmlns:sodipodi="http://sodipodi.sourceforge.net/DTD/sodipodi-0.dtd"
   xmlns="http://www.w3.org/2000/svg"
   xmlns:svg="http://www.w3.org/2000/svg">
  <sodipodi:namedview
     id="namedview1883"
     pagecolor="#ffffff"
     bordercolor="#cccccc"
     borderopacity="1"
     inkscape:showpageshadow="0"
     inkscape:pageopacity="1"
     inkscape:pagecheckerboard="0"
     inkscape:deskcolor="#d1d1d1"
     showgrid="false"
     inkscape:zoom="0.26743141"
     inkscape:cx="-575.84858"
     inkscape:cy="203.79057"
     inkscape:window-width="1920"
     inkscape:window-height="1046"
     inkscape:window-x="0"
     inkscape:window-y="0"
     inkscape:window-maximized="1"
     inkscape:current-layer="svg1881" />
  <!--Generated by the Batik Graphics2D SVG Generator-->
  <defs
     id="genericDefs">
    <defs
       id="defs1">
      <clipPath
         clipPathUnits="userSpaceOnUse"
         id="clipPath1">
        <path
           d="M0 0 L1058 0 L1058 312 L0 312 L0 0 Z"
           id="path1565" />
      </clipPath>
    </defs>
  </defs>
  <g
     id="g2931">
    <g
       style="fill:#ffffff;stroke:#ffffff"
       id="g1571">
      <rect
         x="0"
         y="0"
         width="1058"
         style="stroke:none"
         height="312"
         clip-path="url(#clipPath1)"
         id="rect1569" />
    </g>
    <g
       style="color-interpolation:sRGB;fill:#ffffff;stroke:#ffffff;color-rendering:optimizeSpeed;image-rendering:optimizeSpeed;shape-rendering:crispEdges;text-rendering:optimizeSpeed"
       id="g1577">
      <rect
         x="0"
         width="1058"
         height="312"
         y="0"
         style="stroke:none"
         id="rect1573" />
      <path
         style="stroke:none"
         d="M 138,221 H 957 V 23 H 138 Z"
         id="path1575" />
    </g>
    <g
       style="color-interpolation:linearRGB;fill:#262626;stroke:#262626;stroke-width:2.6667;stroke-linejoin:round;color-rendering:optimizeQuality;image-rendering:optimizeQuality;text-rendering:geometricPrecision"
       id="g1595">
      <line
         y2="221"
         style="fill:none"
         x1="138"
         x2="957"
         y1="221"
         id="line1579" />
      <line
         y2="23"
         style="fill:none"
         x1="138"
         x2="957"
         y1="23"
         id="line1581" />
      <line
         y2="212.81"
         style="fill:none"
         x1="138"
         x2="138"
         y1="221"
         id="line1583" />
      <line
         y2="212.81"
         style="fill:none"
         x1="547.5"
         x2="547.5"
         y1="221"
         id="line1585" />
      <line
         y2="212.81"
         style="fill:none"
         x1="957"
         x2="957"
         y1="221"
         id="line1587" />
      <line
         y2="31.190001"
         style="fill:none"
         x1="138"
         x2="138"
         y1="23"
         id="line1589" />
      <line
         y2="31.190001"
         style="fill:none"
         x1="547.5"
         x2="547.5"
         y1="23"
         id="line1591" />
      <line
         y2="31.190001"
         style="fill:none"
         x1="957"
         x2="957"
         y1="23"
         id="line1593" />
    </g>
    <g
       transform="translate(138,230.0667)"
       style="font-size:32px;font-family:SansSerif;color-interpolation:linearRGB;fill:#262626;stroke:#262626;color-rendering:optimizeQuality;image-rendering:optimizeQuality;text-rendering:geometricPrecision"
       id="g1599">
      <path
         style="stroke:none"
         d="m -0.3281,8.75 q -2.4375,0 -3.6641,2.3984 -1.2266,2.3985 -1.2266,7.211 0,4.7968 1.2266,7.1953 1.2266,2.3984 3.6641,2.3984 2.4531,0 3.6797,-2.3984 1.2265,-2.3985 1.2265,-7.1953 0,-4.8125 -1.2265,-7.211 Q 2.125,8.75 -0.3281,8.75 Z m 0,-2.5 q 3.9219,0 5.9922,3.1016 2.0703,3.1015 2.0703,9.0078 0,5.8906 -2.0703,8.9922 -2.0703,3.1015 -5.9922,3.1015 -3.9219,0 -5.9922,-3.1015 -2.0703,-3.1016 -2.0703,-8.9922 0,-5.9063 2.0703,-9.0078 Q -4.25,6.25 -0.3281,6.25 Z"
         id="path1597" />
    </g>
    <g
       transform="translate(547.5,230.0667)"
       style="font-size:32px;font-family:SansSerif;color-interpolation:linearRGB;fill:#262626;stroke:#262626;color-rendering:optimizeQuality;image-rendering:optimizeQuality;text-rendering:geometricPrecision"
       id="g1603">
      <path
         style="stroke:none"
         d="m -15.3281,8.75 q -2.4375,0 -3.6641,2.3984 -1.2266,2.3985 -1.2266,7.211 0,4.7968 1.2266,7.1953 1.2266,2.3984 3.6641,2.3984 2.4531,0 3.6797,-2.3984 1.2265,-2.3985 1.2265,-7.1953 0,-4.8125 -1.2265,-7.211 Q -12.875,8.75 -15.3281,8.75 Z m 0,-2.5 q 3.9219,0 5.9922,3.1016 2.0703,3.1015 2.0703,9.0078 0,5.8906 -2.0703,8.9922 -2.0703,3.1015 -5.9922,3.1015 -3.9219,0 -5.9922,-3.1015 -2.0703,-3.1016 -2.0703,-8.9922 0,-5.9063 2.0703,-9.0078 Q -19.25,6.25 -15.3281,6.25 Z M -1.7188,26.0312 H 1.5781 V 30 H -1.7188 Z M 8.4844,6.6719 H 20.875 v 2.6562 h -9.5 v 5.7188 q 0.6875,-0.2344 1.375,-0.3516 0.6875,-0.1172 1.375,-0.1172 3.9062,0 6.1875,2.1407 2.2813,2.1406 2.2813,5.7968 0,3.7656 -2.3438,5.8516 -2.3438,2.0859 -6.6094,2.0859 -1.4687,0 -2.9922,-0.25 -1.5234,-0.25 -3.1484,-0.75 v -3.1719 q 1.4062,0.7657 2.9062,1.1407 1.5,0.375 3.1719,0.375 2.7031,0 4.2813,-1.4219 1.5781,-1.4219 1.5781,-3.8594 0,-2.4375 -1.5781,-3.8594 -1.5782,-1.4218 -4.2813,-1.4218 -1.2656,0 -2.5234,0.2812 -1.2578,0.2813 -2.5703,0.875 z"
         id="path1601" />
    </g>
    <g
       transform="translate(957,230.0667)"
       style="font-size:32px;font-family:SansSerif;color-interpolation:linearRGB;fill:#262626;stroke:#262626;color-rendering:optimizeQuality;image-rendering:optimizeQuality;text-rendering:geometricPrecision"
       id="g1607">
      <path
         style="stroke:none"
         d="M -6.5312,27.3438 H -1.375 V 9.5469 l -5.6094,1.125 v -2.875 l 5.5782,-1.125 H 1.75 V 27.3438 H 6.9062 V 30 H -6.5312 Z"
         id="path1605" />
    </g>
    <g
       transform="translate(547.5004,270.4)"
       style="font-size:35.2px;font-family:SansSerif;color-interpolation:linearRGB;fill:#262626;stroke:#262626;color-rendering:optimizeQuality;image-rendering:optimizeQuality;text-rendering:geometricPrecision"
       id="g1611">
      <path
         style="stroke:none"
         d="M -140.7969,21.4531 V 33 h -3.1406 V 21.5469 q 0,-2.7188 -1.0547,-4.0703 -1.0547,-1.3516 -3.1797,-1.3516 -2.5469,0 -4.0156,1.625 -1.4687,1.625 -1.4687,4.4375 V 33 h -3.1719 V 13.8594 h 3.1719 v 2.9687 q 1.125,-1.7187 2.6562,-2.5781 1.5312,-0.8594 3.5312,-0.8594 3.2969,0 4.9844,2.0469 1.6875,2.0469 1.6875,6.0156 z m 13.8171,-5.3906 q -2.5312,0 -4,1.9766 -1.4687,1.9765 -1.4687,5.414 0,3.4219 1.4609,5.3985 1.4609,1.9765 4.0078,1.9765 2.5156,0 3.9844,-1.9843 1.4687,-1.9844 1.4687,-5.3907 0,-3.4062 -1.4687,-5.3984 -1.4688,-1.9922 -3.9844,-1.9922 z m 0,-2.6719 q 4.0938,0 6.4375,2.6719 2.3438,2.6719 2.3438,7.3906 0,4.6875 -2.3438,7.3672 -2.3437,2.6797 -6.4375,2.6797 -4.125,0 -6.4531,-2.6797 -2.3281,-2.6797 -2.3281,-7.3672 0,-4.7187 2.3281,-7.3906 2.3281,-2.6719 6.4531,-2.6719 z m 25.2002,3.4063 q -0.5313,-0.3125 -1.1563,-0.4531 -0.625,-0.1407 -1.375,-0.1407 -2.6719,0 -4.0937,1.7344 -1.4219,1.7344 -1.4219,4.9844 V 33 h -3.1719 V 13.8594 h 3.1719 v 2.9687 q 0.9844,-1.7343 2.5781,-2.5859 1.5938,-0.8516 3.8594,-0.8516 0.3281,0 0.7187,0.0469 0.3907,0.0469 0.875,0.125 z m 18.2792,0.7343 q 1.1719,-2.1093 2.8125,-3.125 1.6406,-1.0156 3.875,-1.0156 2.9844,0 4.6094,2.0938 1.625,2.0937 1.625,5.9687 V 33 h -3.1719 V 21.5469 q 0,-2.75 -0.9687,-4.086 -0.9688,-1.3359 -2.9688,-1.3359 -2.4531,0 -3.8672,1.625 -1.414,1.625 -1.414,4.4375 V 33 H -86.141 V 21.5469 q 0,-2.7657 -0.9688,-4.0938 -0.9687,-1.3281 -3,-1.3281 -2.4218,0 -3.8359,1.6328 -1.4141,1.6328 -1.4141,4.4297 V 33 h -3.1718 V 13.8594 h 3.1718 v 2.9687 q 1.0782,-1.75 2.5782,-2.5937 1.5,-0.8438 3.5781,-0.8438 2.0781,0 3.539,1.0625 1.461,1.0625 2.1641,3.0781 z m 28.0738,5.8438 q -3.8125,0 -5.2813,0.875 -1.4687,0.875 -1.4687,2.9688 0,1.6718 1.1015,2.6562 1.1016,0.9844 2.9922,0.9844 2.625,0 4.2031,-1.8516 1.5782,-1.8516 1.5782,-4.9297 V 23.375 Z m 6.2656,-1.2969 V 33 h -3.1406 v -2.9062 q -1.0782,1.75 -2.6875,2.5781 -1.6094,0.8281 -3.9219,0.8281 -2.9375,0 -4.6719,-1.6484 -1.7344,-1.6485 -1.7344,-4.4297 0,-3.2188 2.1563,-4.8594 2.1562,-1.6406 6.4531,-1.6406 h 4.4063 v -0.3125 q 0,-2.1719 -1.4297,-3.3594 -1.4297,-1.1875 -4.0078,-1.1875 -1.6407,0 -3.1953,0.3906 -1.5547,0.3907 -2.9922,1.1875 v -2.9062 q 1.7343,-0.6719 3.3593,-1.0078 1.625,-0.336 3.1563,-0.336 4.1562,0 6.2031,2.1563 2.0469,2.1562 2.0469,6.5312 z m 6.5939,-15.6719 h 3.1406 V 33 h -3.1406 z m 9.7762,7.4532 h 3.1406 V 33 h -3.1406 z m 0,-7.4532 h 3.1406 v 3.9844 h -3.1406 z m 8.4168,7.4532 h 14.9375 v 2.875 l -11.8281,13.75 H -9.4366 V 33 h -15.375 v -2.875 l 11.8282,-13.75 h -11.3907 z m 36.2044,8.7812 v 1.5469 H -2.6228 q 0.2031,3.2344 1.9531,4.9375 1.75,1.7031 4.875,1.7031 1.8125,0 3.5156,-0.4453 1.7032,-0.4453 3.375,-1.3359 v 2.9843 Q 9.4084,32.75 7.6272,33.125 5.8459,33.5 4.0178,33.5 q -4.5781,0 -7.25,-2.6719 -2.6719,-2.6719 -2.6719,-7.2031 0,-4.7031 2.5313,-7.4688 2.5312,-2.7656 6.8437,-2.7656 3.8594,0 6.1094,2.4922 2.25,2.4922 2.25,6.7578 z M 8.6897,21.7188 Q 8.6428,19.1406 7.2366,17.6016 5.8303,16.0625 3.5022,16.0625 q -2.625,0 -4.2109,1.4844 -1.586,1.4843 -1.8204,4.1875 z M 29.6976,16.7656 V 6.4062 h 3.1407 V 33 h -3.1407 v -2.875 q -0.9843,1.7188 -2.5,2.5469 -1.5156,0.8281 -3.625,0.8281 -3.4687,0 -5.6484,-2.7734 -2.1797,-2.7735 -2.1797,-7.2735 0,-4.5156 2.1797,-7.289 2.1797,-2.7735 5.6484,-2.7735 2.1094,0 3.625,0.836 1.5157,0.8359 2.5,2.539 z m -10.7187,6.6875 q 0,3.4688 1.4297,5.4375 1.4297,1.9688 3.9297,1.9688 2.4843,0 3.9218,-1.9688 1.4375,-1.9687 1.4375,-5.4375 0,-3.4687 -1.4375,-5.4453 -1.4375,-1.9766 -3.9218,-1.9766 -2.5,0 -3.9297,1.9766 -1.4297,1.9766 -1.4297,5.4453 z M 50.6248,6.4062 h 3.1406 V 33 H 50.6248 Z M 76.776,22.6406 v 1.5469 H 62.3229 q 0.2031,3.2344 1.9531,4.9375 1.75,1.7031 4.875,1.7031 1.8125,0 3.5156,-0.4453 1.7032,-0.4453 3.375,-1.3359 v 2.9843 Q 74.3541,32.75 72.5729,33.125 70.7916,33.5 68.9635,33.5 q -4.5781,0 -7.25,-2.6719 -2.6719,-2.6719 -2.6719,-7.2031 0,-4.7031 2.5313,-7.4688 2.5312,-2.7656 6.8437,-2.7656 3.8594,0 6.1094,2.4922 2.25,2.4922 2.25,6.7578 z m -3.1406,-0.9218 q -0.0469,-2.5782 -1.4531,-4.1172 -1.4063,-1.5391 -3.7344,-1.5391 -2.625,0 -4.211,1.4844 -1.5859,1.4843 -1.8203,4.1875 z M 97.9558,21.4531 V 33 H 94.8152 V 21.5469 q 0,-2.7188 -1.0547,-4.0703 -1.0547,-1.3516 -3.1797,-1.3516 -2.5469,0 -4.0156,1.625 -1.4688,1.625 -1.4688,4.4375 V 33 H 81.9246 V 13.8594 h 3.1718 v 2.9687 q 1.125,-1.7187 2.6563,-2.5781 1.5312,-0.8594 3.5312,-0.8594 3.2969,0 4.9844,2.0469 1.6875,2.0469 1.6875,6.0156 z m 18.989,1.75 q 0,-3.4062 -1.4063,-5.289 -1.4062,-1.8829 -3.9531,-1.8829 -2.5313,0 -3.9453,1.8829 -1.4141,1.8828 -1.4141,5.289 0,3.4063 1.4141,5.2891 1.414,1.8828 3.9453,1.8828 2.5469,0 3.9531,-1.8828 1.4063,-1.8828 1.4063,-5.2891 z m 3.1406,7.4219 q 0,4.8906 -2.1641,7.2734 -2.164,2.3828 -6.6484,2.3828 -1.6563,0 -3.125,-0.25 -1.4688,-0.25 -2.8594,-0.7656 v -3.0468 q 1.3906,0.75 2.7422,1.1093 1.3516,0.3594 2.7422,0.3594 3.0937,0 4.6328,-1.6172 1.5391,-1.6172 1.5391,-4.8828 v -1.5469 q -0.9688,1.6875 -2.4922,2.5235 Q 112.9291,33 110.8198,33 q -3.5313,0 -5.6797,-2.6797 -2.1485,-2.6797 -2.1485,-7.1172 0,-4.4375 2.1485,-7.125 2.1484,-2.6875 5.6797,-2.6875 2.1093,0 3.6328,0.8438 1.5234,0.8437 2.4922,2.5312 v -2.9062 h 3.1406 z m 9.7108,-22.2031 v 5.4375 h 6.4844 v 2.4375 h -6.4844 v 10.3906 q 0,2.3437 0.6406,3.0156 0.6407,0.6719 2.6094,0.6719 h 3.2344 V 33 h -3.2344 q -3.6406,0 -5.0234,-1.3594 Q 126.64,30.2812 126.64,26.6875 V 16.2969 h -2.3125 V 13.8594 H 126.64 V 8.4219 Z m 26.5935,13.0312 V 33 h -3.1406 V 21.5469 q 0,-2.7188 -1.0547,-4.0703 -1.0547,-1.3516 -3.1797,-1.3516 -2.5468,0 -4.0156,1.625 -1.4687,1.625 -1.4687,4.4375 V 33 h -3.1719 V 6.4062 h 3.1719 v 10.4219 q 1.125,-1.7187 2.6562,-2.5781 1.5313,-0.8594 3.5313,-0.8594 3.2968,0 4.9843,2.0469 1.6875,2.0469 1.6875,6.0156 z"
         id="path1609" />
    </g>
    <g
       style="color-interpolation:linearRGB;fill:#262626;stroke:#262626;stroke-width:2.6667;stroke-linejoin:round;color-rendering:optimizeQuality;image-rendering:optimizeQuality;text-rendering:geometricPrecision"
       id="g1629">
      <line
         y2="23"
         style="fill:none"
         x1="138"
         x2="138"
         y1="221"
         id="line1613" />
      <line
         y2="23"
         style="fill:none"
         x1="957"
         x2="957"
         y1="221"
         id="line1615" />
      <line
         y2="221"
         style="fill:none"
         x1="138"
         x2="146.19"
         y1="221"
         id="line1617" />
      <line
         y2="122"
         style="fill:none"
         x1="138"
         x2="146.19"
         y1="122"
         id="line1619" />
      <line
         y2="23"
         style="fill:none"
         x1="138"
         x2="146.19"
         y1="23"
         id="line1621" />
      <line
         y2="221"
         style="fill:none"
         x1="957"
         x2="948.81"
         y1="221"
         id="line1623" />
      <line
         y2="122"
         style="fill:none"
         x1="957"
         x2="948.81"
         y1="122"
         id="line1625" />
      <line
         y2="23"
         style="fill:none"
         x1="957"
         x2="948.81"
         y1="23"
         id="line1627" />
    </g>
    <g
       transform="translate(128.9333,221)"
       style="font-size:32px;font-family:SansSerif;color-interpolation:linearRGB;fill:#262626;stroke:#262626;color-rendering:optimizeQuality;image-rendering:optimizeQuality;text-rendering:geometricPrecision"
       id="g1633">
      <path
         style="stroke:none"
         d="m -10.8281,-10.25 q -2.4375,0 -3.6641,2.3984 -1.2266,2.3985 -1.2266,7.211 0,4.7968 1.2266,7.1953 1.2266,2.3984 3.6641,2.3984 2.4531,0 3.6797,-2.3984 1.2265,-2.3985 1.2265,-7.1953 0,-4.8125 -1.2265,-7.211 -1.2266,-2.3984 -3.6797,-2.3984 z m 0,-2.5 q 3.9219,0 5.9922,3.1016 2.0703,3.1015 2.0703,9.0078 0,5.8906 -2.0703,8.9922 -2.0703,3.1015 -5.9922,3.1015 -3.9219,0 -5.9922,-3.1015 -2.0703,-3.1016 -2.0703,-8.9922 0,-5.9063 2.0703,-9.0078 2.0703,-3.1016 5.9922,-3.1016 z"
         id="path1631" />
    </g>
    <g
       transform="translate(128.9333,122)"
       style="font-size:32px;font-family:SansSerif;color-interpolation:linearRGB;fill:#262626;stroke:#262626;color-rendering:optimizeQuality;image-rendering:optimizeQuality;text-rendering:geometricPrecision"
       id="g1637">
      <path
         style="stroke:none"
         d="m -17.5469,-12.3281 h 12.3907 v 2.6562 h -9.5 v 5.7188 q 0.6874,-0.2344 1.375,-0.3516 0.6874,-0.1172 1.375,-0.1172 3.9062,0 6.1874,2.1407 2.2813,2.1406 2.2813,5.7968 0,3.7656 -2.3437,5.8516 -2.3438,2.0859 -6.6094,2.0859 -1.4688,0 -2.9922,-0.25 -1.5234,-0.25 -3.1484,-0.75 V 7.2812 q 1.4062,0.7657 2.9062,1.1407 1.5,0.375 3.1719,0.375 2.7031,0 4.2812,-1.4219 1.5781,-1.4219 1.5781,-3.8594 0,-2.4375 -1.5781,-3.8594 -1.5781,-1.4218 -4.2812,-1.4218 -1.2657,0 -2.5235,0.2812 -1.2578,0.2813 -2.5703,0.875 z"
         id="path1635" />
    </g>
    <g
       transform="translate(128.9333,23)"
       style="font-size:32px;font-family:SansSerif;color-interpolation:linearRGB;fill:#262626;stroke:#262626;color-rendering:optimizeQuality;image-rendering:optimizeQuality;text-rendering:geometricPrecision"
       id="g1641">
      <path
         style="stroke:none"
         d="m -37.0312,8.3438 h 5.1562 V -9.4531 l -5.6094,1.125 v -2.875 l 5.5782,-1.125 H -28.75 V 8.3438 h 5.1562 V 11 H -37.0312 Z M -10.4688,-10.25 q -2.4374,0 -3.664,2.3984 -1.2266,2.3985 -1.2266,7.211 0,4.7968 1.2266,7.1953 1.2266,2.3984 3.664,2.3984 2.4532,0 3.6797,-2.3984 1.2266,-2.3985 1.2266,-7.1953 0,-4.8125 -1.2266,-7.211 -1.2265,-2.3984 -3.6797,-2.3984 z m 0,-2.5 q 3.9219,0 5.9922,3.1016 2.0704,3.1015 2.0704,9.0078 0,5.8906 -2.0704,8.9922 -2.0703,3.1015 -5.9922,3.1015 -3.9218,0 -5.9921,-3.1015 -2.0703,-3.1016 -2.0703,-8.9922 0,-5.9063 2.0703,-9.0078 2.0703,-3.1016 5.9921,-3.1016 z"
         id="path1639" />
    </g>
    <g
       transform="rotate(-90,130.5,70.5)"
       style="font-size:35.2px;font-family:SansSerif;color-interpolation:linearRGB;fill:#262626;stroke:#262626;color-rendering:optimizeQuality;image-rendering:optimizeQuality;text-rendering:geometricPrecision"
       id="g1645">
      <path
         style="stroke:none"
         d="M 19.2031,-19.1406 12.2812,-9.8281 19.5625,0 H 15.8594 L 10.2812,-7.5156 4.7188,0 H 1.0156 l 7.4219,-10.0156 -6.7969,-9.125 h 3.7032 l 5.0781,6.8125 5.0781,-6.8125 z"
         id="path1643" />
    </g>
    <g
       transform="rotate(-90,122.5,45.5)"
       style="font-size:28.16px;font-family:SansSerif;color-interpolation:linearRGB;fill:#262626;stroke:#262626;color-rendering:optimizeQuality;image-rendering:optimizeQuality;text-rendering:geometricPrecision"
       id="g1649">
      <path
         style="stroke:none"
         d="m 18.0312,-18.8438 v 2.9219 q -1.3906,-1.3125 -2.9687,-1.9531 -1.5781,-0.6406 -3.3594,-0.6406 -3.5,0 -5.3593,2.1406 -1.8594,2.1406 -1.8594,6.1875 0,4.0313 1.8594,6.1719 1.8593,2.1406 5.3593,2.1406 1.7813,0 3.3594,-0.6406 1.5781,-0.6406 2.9687,-1.9375 v 2.875 q -1.4531,0.9843 -3.0703,1.4765 -1.6171,0.4922 -3.414,0.4922 -4.6407,0 -7.3047,-2.8359 -2.6641,-2.8359 -2.6641,-7.7422 0,-4.9219 2.6641,-7.7578 2.664,-2.8359 7.3047,-2.8359 1.8281,0 3.4453,0.4843 1.6172,0.4844 3.039,1.4531 z m 12.6599,0.2969 q -3,0 -4.7734,2.2422 -1.7734,2.2422 -1.7734,6.1172 0,3.8594 1.7734,6.1016 1.7734,2.2421 4.7734,2.2421 3.0157,0 4.7735,-2.2421 1.7578,-2.2422 1.7578,-6.1016 0,-3.875 -1.7578,-6.1172 -1.7578,-2.2422 -4.7735,-2.2422 z m 0,-2.2343 q 4.2969,0 6.8672,2.875 2.5703,2.875 2.5703,7.7187 0,4.8281 -2.5703,7.7031 -2.5703,2.875 -6.8672,2.875 -4.2968,0 -6.875,-2.8672 -2.5781,-2.8672 -2.5781,-7.7109 0,-4.8437 2.5781,-7.7187 2.5782,-2.875 6.875,-2.875 z"
         id="path1647" />
    </g>
    <g
       transform="rotate(-90,93,33)"
       style="font-size:35.2px;font-family:SansSerif;color-interpolation:linearRGB;fill:#262626;stroke:#262626;color-rendering:optimizeQuality;image-rendering:optimizeQuality;text-rendering:geometricPrecision"
       id="g1653">
      <path
         style="stroke:none"
         d="M 20.0757,-25.5156 H 22.982 L 14.0913,3.25 h -2.9062 z m 53.3215,14.2812 q -1.4844,0 -2.3437,1.2656 -0.8594,1.2657 -0.8594,3.5313 0,2.2187 0.8594,3.4922 0.8593,1.2734 2.3437,1.2734 1.4531,0 2.2969,-1.2734 0.8437,-1.2735 0.8437,-3.4922 0,-2.25 -0.8437,-3.5234 -0.8438,-1.2735 -2.2969,-1.2735 z m 0,-2.1718 q 2.7031,0 4.2891,1.8828 1.5859,1.8828 1.5859,5.0859 0,3.1875 -1.5937,5.0625 -1.5938,1.875 -4.2813,1.875 -2.7344,0 -4.3281,-1.875 -1.5938,-1.875 -1.5938,-5.0625 0,-3.2187 1.6016,-5.0937 1.6016,-1.875 4.3203,-1.875 z M 42.0378,-25.9844 q 2.7032,0 4.3047,1.875 1.6016,1.875 1.6016,5.0782 0,3.2187 -1.5938,5.0859 -1.5937,1.8672 -4.3125,1.8672 -2.7187,0 -4.2968,-1.875 -1.5782,-1.875 -1.5782,-5.0781 0,-3.1876 1.586,-5.0704 1.5859,-1.8828 4.289,-1.8828 z m 15.4375,0 h 2.7344 L 44.241,0.5 h -2.7344 z m -15.4375,2.1719 q -1.4687,0 -2.3125,1.2734 -0.8437,1.2735 -0.8437,3.5079 0,2.25 0.8359,3.5156 0.836,1.2656 2.3203,1.2656 1.4844,0 2.3282,-1.2656 0.8437,-1.2656 0.8437,-3.5156 0,-2.2188 -0.8515,-3.5 -0.8516,-1.2813 -2.3204,-1.2813 z m 17.6407,10.4063 q 2.6875,0 4.2812,1.8828 1.5938,1.8828 1.5938,5.0859 0,3.1875 -1.6016,5.0625 -1.6016,1.875 -4.2734,1.875 -2.7344,0 -4.3282,-1.875 -1.5937,-1.875 -1.5937,-5.0625 0,-3.2187 1.6016,-5.0937 1.6015,-1.875 4.3203,-1.875 z m 0,2.1718 q -1.5,0 -2.3438,1.2656 -0.8437,1.2657 -0.8437,3.5313 0,2.2187 0.8437,3.4922 0.8438,1.2734 2.3438,1.2734 1.4531,0 2.2968,-1.2734 0.8438,-1.2735 0.8438,-3.4922 0,-2.25 -0.8438,-3.5234 -0.8437,-1.2735 -2.2968,-1.2735 z"
         id="path1651" />
    </g>
    <g
       style="color-interpolation:linearRGB;stroke-width:4;stroke-linecap:butt;stroke-linejoin:round;color-rendering:optimizeQuality;image-rendering:optimizeQuality;text-rendering:geometricPrecision"
       id="g1657">
      <path
         d="m 138,23 4.095,1.7324 4.095,1.739 4.095,1.7456 4.095,1.7524 4.095,1.7591 4.095,1.7661 4.095,1.773 4.095,1.78 4.095,1.7872 4.095,1.7943 4.095,1.8016 4.095,1.809 4.095,1.8164 4.095,1.8239 4.095,1.8316 4.095,1.8392 4.095,1.847 4.095,1.8549 4.095,1.8628 4.095,1.8709 4.095,1.879 4.095,1.8873 4.095,1.8956 4.095,1.904 4.095,1.9126 4.095,1.9212 4.095,1.9299 4.095,1.9388 4.095,1.9476 4.095,1.9567 4.095,1.9659 4.095,1.9751 4.095,1.9844 4.095,1.9939 4.095,2.0035 4.095,2.0131 4.095,2.0229 4.095,2.0328 4.095,2.0427 4.095,2.0529 4.095,2.063 4.095,2.0733 4.095,2.0838 4.095,2.0942 4.095,2.1048 4.095,2.1155 4.095,2.1262 4.095,2.1371 4.095,2.148 4.095,2.159 4.095,2.1701 4.095,2.1812 4.095,2.1923 4.095,2.2035 4.095,2.2147 4.095,2.2259 4.095,2.2371 4.095,2.2482 4.095,2.2593 4.095,2.2702 4.095,2.281 4.095,2.2916 4.095,2.3021 4.095,2.3123 4.095,2.322 4.095,2.3314 4.095,2.3404 4.095,2.3486 4.095,2.3563 4.095,2.3631 4.095,2.3688 4.095,2.3735 4.095,2.3768 4.095,2.3783 4.095,2.378 4.095,2.3754 4.095,2.37 4.095,2.3615 4.095,2.3492 4.095,2.3322 4.095,2.3098 4.095,2.281 4.095,2.2444 4.095,2.1984 4.095,2.1413 4.095,2.0706 4.095,1.984 4.095,1.8782 4.095,1.7504 4.095,1.5973 4.095,1.4175 4.095,1.2112 4.095,0.9838 4.095,0.7468 4.095,0.5175 4.095,0.315 4.095,0.1527 4.095,0.0342 4.095,-0.0458 4.095,-0.0966 4.095,-0.1267 4.095,-0.1433 4.095,-0.1511 4.095,-0.1533 4.095,-0.152 4.0949,-0.1483 4.0951,-0.1434 4.095,-0.1376 4.095,-0.1315 4.095,-0.125 4.095,-0.1186 4.095,-0.1123 4.095,-0.106 4.095,-0.1001 4.095,-0.0942 4.095,-0.0887 4.095,-0.0834 4.095,-0.0784 4.0951,-0.0735 4.0949,-0.069 4.095,-0.0647 4.095,-0.0606 4.095,-0.0568 4.095,-0.0531 4.095,-0.0497 4.095,-0.0465 4.095,-0.0434 4.095,-0.0406 4.095,-0.0379 4.095,-0.0354 4.0949,-0.033 4.0951,-0.0307 4.095,-0.0287 4.095,-0.0268 4.095,-0.0249 4.095,-0.0232 4.095,-0.0215 4.095,-0.0201 4.095,-0.0187 4.095,-0.0174 4.095,-0.0162 4.095,-0.015 4.095,-0.014 4.0951,-0.0129 4.0949,-0.0121 4.095,-0.0111 4.095,-0.0104 4.095,-0.01 4.095,-0.009 4.095,-0.008 4.095,-0.008 4.095,-0.007 4.095,-0.007 4.095,-0.006 4.095,-0.006 4.0949,-0.005 4.0951,-0.005 4.095,-0.004 4.095,-0.004 4.095,-0.004 4.095,-0.004 4.095,-0.003 4.095,-0.003 4.095,-0.003 4.095,-0.003 4.095,-0.002 4.095,-0.002 4.095,-0.002 4.0951,-0.002 4.0949,-0.002 4.095,-0.002 4.095,-0.001 4.095,-10e-4 4.095,-0.001 4.095,-0.001 4.095,-0.001 4.095,-0.001 4.095,-9e-4 4.095,-9e-4 4.095,-8e-4 4.0949,-7e-4 4.0951,-6e-4 4.095,-7e-4 4.095,-5e-4 4.095,-6e-4 4.095,-5e-4 4.095,-4e-4 4.095,-4e-4 4.095,-4e-4 4.095,-3e-4 4.095,-4e-4 4.095,-3e-4 4.095,-2e-4 4.0951,-3e-4 4.0949,-2e-4 4.095,-2e-4 4.095,-2e-4 4.095,-2e-4 4.095,-2e-4"
         style="fill:none;fill-rule:evenodd"
         id="path1655" />
    </g>
    <g
       transform="translate(138,23)"
       style="color-interpolation:linearRGB;fill:#e6001a;stroke:#e6001a;color-rendering:optimizeQuality;image-rendering:optimizeQuality;text-rendering:geometricPrecision"
       id="g1661">
      <circle
         r="4.6666999"
         style="stroke:none"
         cx="0"
         cy="0"
         id="circle1659" />
    </g>
    <g
       transform="translate(138,23)"
       style="color-interpolation:linearRGB;fill:#e6001a;stroke:#e6001a;stroke-width:4;stroke-linecap:butt;stroke-linejoin:round;color-rendering:optimizeQuality;image-rendering:optimizeQuality;text-rendering:geometricPrecision"
       id="g1665">
      <path
         style="stroke:none"
         d="m 0,-4.3333 c 2.3932,0 4.3333,1.9401 4.3333,4.3333 V 0 C 4.3333,2.3932 2.3932,4.3333 0,4.3333 -2.3932,4.3333 -4.3333,2.3932 -4.3333,0 -4.3333,-2.3932 -2.3932,-4.3333 0,-4.3333 Z M 0,-5 c -2.7614,0 -5,2.2386 -5,5 0,2.7614 2.2386,5 5,5 C 2.7614,5 5,2.7614 5,0 V 0 C 5,-2.7614 2.7614,-5 0,-5 Z"
         id="path1663" />
    </g>
    <g
       transform="translate(170.76,36.9172)"
       style="color-interpolation:linearRGB;fill:#e6001a;stroke:#e6001a;color-rendering:optimizeQuality;image-rendering:optimizeQuality;text-rendering:geometricPrecision"
       id="g1669">
      <circle
         r="4.6666999"
         style="stroke:none"
         cx="0"
         cy="0"
         id="circle1667" />
    </g>
    <g
       transform="translate(170.76,36.9172)"
       style="color-interpolation:linearRGB;fill:#e6001a;stroke:#e6001a;stroke-width:4;stroke-linecap:butt;stroke-linejoin:round;color-rendering:optimizeQuality;image-rendering:optimizeQuality;text-rendering:geometricPrecision"
       id="g1673">
      <path
         style="stroke:none"
         d="m 0,-4.3333 c 2.3932,0 4.3333,1.9401 4.3333,4.3333 V 0 C 4.3333,2.3932 2.3932,4.3333 0,4.3333 -2.3932,4.3333 -4.3333,2.3932 -4.3333,0 -4.3333,-2.3932 -2.3932,-4.3333 0,-4.3333 Z M 0,-5 c -2.7614,0 -5,2.2386 -5,5 0,2.7614 2.2386,5 5,5 C 2.7614,5 5,2.7614 5,0 V 0 C 5,-2.7614 2.7614,-5 0,-5 Z"
         id="path1671" />
    </g>
    <g
       transform="translate(207.615,53.1126)"
       style="color-interpolation:linearRGB;fill:#e6001a;stroke:#e6001a;color-rendering:optimizeQuality;image-rendering:optimizeQuality;text-rendering:geometricPrecision"
       id="g1677">
      <circle
         r="4.6666999"
         style="stroke:none"
         cx="0"
         cy="0"
         id="circle1675" />
    </g>
    <g
       transform="translate(207.615,53.1126)"
       style="color-interpolation:linearRGB;fill:#e6001a;stroke:#e6001a;stroke-width:4;stroke-linecap:butt;stroke-linejoin:round;color-rendering:optimizeQuality;image-rendering:optimizeQuality;text-rendering:geometricPrecision"
       id="g1681">
      <path
         style="stroke:none"
         d="m 0,-4.3333 c 2.3932,0 4.3333,1.9401 4.3333,4.3333 V 0 C 4.3333,2.3932 2.3932,4.3333 0,4.3333 -2.3932,4.3333 -4.3333,2.3932 -4.3333,0 -4.3333,-2.3932 -2.3932,-4.3333 0,-4.3333 Z M 0,-5 c -2.7614,0 -5,2.2386 -5,5 0,2.7614 2.2386,5 5,5 C 2.7614,5 5,2.7614 5,0 V 0 C 5,-2.7614 2.7614,-5 0,-5 Z"
         id="path1679" />
    </g>
    <g
       transform="translate(240.375,68.0341)"
       style="color-interpolation:linearRGB;fill:#e6001a;stroke:#e6001a;color-rendering:optimizeQuality;image-rendering:optimizeQuality;text-rendering:geometricPrecision"
       id="g1685">
      <circle
         r="4.6666999"
         style="stroke:none"
         cx="0"
         cy="0"
         id="circle1683" />
    </g>
    <g
       transform="translate(240.375,68.0341)"
       style="color-interpolation:linearRGB;fill:#e6001a;stroke:#e6001a;stroke-width:4;stroke-linecap:butt;stroke-linejoin:round;color-rendering:optimizeQuality;image-rendering:optimizeQuality;text-rendering:geometricPrecision"
       id="g1689">
      <path
         style="stroke:none"
         d="m 0,-4.3333 c 2.3932,0 4.3333,1.9401 4.3333,4.3333 V 0 C 4.3333,2.3932 2.3932,4.3333 0,4.3333 -2.3932,4.3333 -4.3333,2.3932 -4.3333,0 -4.3333,-2.3932 -2.3932,-4.3333 0,-4.3333 Z M 0,-5 c -2.7614,0 -5,2.2386 -5,5 0,2.7614 2.2386,5 5,5 C 2.7614,5 5,2.7614 5,0 V 0 C 5,-2.7614 2.7614,-5 0,-5 Z"
         id="path1687" />
    </g>
    <g
       transform="translate(273.135,83.4999)"
       style="color-interpolation:linearRGB;fill:#e6001a;stroke:#e6001a;color-rendering:optimizeQuality;image-rendering:optimizeQuality;text-rendering:geometricPrecision"
       id="g1693">
      <circle
         r="4.6666999"
         style="stroke:none"
         cx="0"
         cy="0"
         id="circle1691" />
    </g>
    <g
       transform="translate(273.135,83.4999)"
       style="color-interpolation:linearRGB;fill:#e6001a;stroke:#e6001a;stroke-width:4;stroke-linecap:butt;stroke-linejoin:round;color-rendering:optimizeQuality;image-rendering:optimizeQuality;text-rendering:geometricPrecision"
       id="g1697">
      <path
         style="stroke:none"
         d="m 0,-4.3333 c 2.3932,0 4.3333,1.9401 4.3333,4.3333 V 0 C 4.3333,2.3932 2.3932,4.3333 0,4.3333 -2.3932,4.3333 -4.3333,2.3932 -4.3333,0 -4.3333,-2.3932 -2.3932,-4.3333 0,-4.3333 Z M 0,-5 c -2.7614,0 -5,2.2386 -5,5 0,2.7614 2.2386,5 5,5 C 2.7614,5 5,2.7614 5,0 V 0 C 5,-2.7614 2.7614,-5 0,-5 Z"
         id="path1695" />
    </g>
    <g
       transform="translate(305.895,99.5625)"
       style="color-interpolation:linearRGB;fill:#e6001a;stroke:#e6001a;color-rendering:optimizeQuality;image-rendering:optimizeQuality;text-rendering:geometricPrecision"
       id="g1701">
      <circle
         r="4.6666999"
         style="stroke:none"
         cx="0"
         cy="0"
         id="circle1699" />
    </g>
    <g
       transform="translate(305.895,99.5625)"
       style="color-interpolation:linearRGB;fill:#e6001a;stroke:#e6001a;stroke-width:4;stroke-linecap:butt;stroke-linejoin:round;color-rendering:optimizeQuality;image-rendering:optimizeQuality;text-rendering:geometricPrecision"
       id="g1705">
      <path
         style="stroke:none"
         d="m 0,-4.3333 c 2.3932,0 4.3333,1.9401 4.3333,4.3333 V 0 C 4.3333,2.3932 2.3932,4.3333 0,4.3333 -2.3932,4.3333 -4.3333,2.3932 -4.3333,0 -4.3333,-2.3932 -2.3932,-4.3333 0,-4.3333 Z M 0,-5 c -2.7614,0 -5,2.2386 -5,5 0,2.7614 2.2386,5 5,5 C 2.7614,5 5,2.7614 5,0 V 0 C 5,-2.7614 2.7614,-5 0,-5 Z"
         id="path1703" />
    </g>
    <g
       transform="translate(342.75,118.4128)"
       style="color-interpolation:linearRGB;fill:#e6001a;stroke:#e6001a;color-rendering:optimizeQuality;image-rendering:optimizeQuality;text-rendering:geometricPrecision"
       id="g1709">
      <circle
         r="4.6666999"
         style="stroke:none"
         cx="0"
         cy="0"
         id="circle1707" />
    </g>
    <g
       transform="translate(342.75,118.4128)"
       style="color-interpolation:linearRGB;fill:#e6001a;stroke:#e6001a;stroke-width:4;stroke-linecap:butt;stroke-linejoin:round;color-rendering:optimizeQuality;image-rendering:optimizeQuality;text-rendering:geometricPrecision"
       id="g1713">
      <path
         style="stroke:none"
         d="m 0,-4.3333 c 2.3932,0 4.3333,1.9401 4.3333,4.3333 V 0 C 4.3333,2.3932 2.3932,4.3333 0,4.3333 -2.3932,4.3333 -4.3333,2.3932 -4.3333,0 -4.3333,-2.3932 -2.3932,-4.3333 0,-4.3333 Z M 0,-5 c -2.7614,0 -5,2.2386 -5,5 0,2.7614 2.2386,5 5,5 C 2.7614,5 5,2.7614 5,0 V 0 C 5,-2.7614 2.7614,-5 0,-5 Z"
         id="path1711" />
    </g>
    <g
       transform="translate(375.51,135.9106)"
       style="color-interpolation:linearRGB;fill:#e6001a;stroke:#e6001a;color-rendering:optimizeQuality;image-rendering:optimizeQuality;text-rendering:geometricPrecision"
       id="g1717">
      <circle
         r="4.6666999"
         style="stroke:none"
         cx="0"
         cy="0"
         id="circle1715" />
    </g>
    <g
       transform="translate(375.51,135.9106)"
       style="color-interpolation:linearRGB;fill:#e6001a;stroke:#e6001a;stroke-width:4;stroke-linecap:butt;stroke-linejoin:round;color-rendering:optimizeQuality;image-rendering:optimizeQuality;text-rendering:geometricPrecision"
       id="g1721">
      <path
         style="stroke:none"
         d="m 0,-4.3333 c 2.3932,0 4.3333,1.9401 4.3333,4.3333 V 0 C 4.3333,2.3932 2.3932,4.3333 0,4.3333 -2.3932,4.3333 -4.3333,2.3932 -4.3333,0 -4.3333,-2.3932 -2.3932,-4.3333 0,-4.3333 Z M 0,-5 c -2.7614,0 -5,2.2386 -5,5 0,2.7614 2.2386,5 5,5 C 2.7614,5 5,2.7614 5,0 V 0 C 5,-2.7614 2.7614,-5 0,-5 Z"
         id="path1719" />
    </g>
    <g
       transform="translate(408.27,154.1095)"
       style="color-interpolation:linearRGB;fill:#e6001a;stroke:#e6001a;color-rendering:optimizeQuality;image-rendering:optimizeQuality;text-rendering:geometricPrecision"
       id="g1725">
      <circle
         r="4.6666999"
         style="stroke:none"
         cx="0"
         cy="0"
         id="circle1723" />
    </g>
    <g
       transform="translate(408.27,154.1095)"
       style="color-interpolation:linearRGB;fill:#e6001a;stroke:#e6001a;stroke-width:4;stroke-linecap:butt;stroke-linejoin:round;color-rendering:optimizeQuality;image-rendering:optimizeQuality;text-rendering:geometricPrecision"
       id="g1729">
      <path
         style="stroke:none"
         d="m 0,-4.3333 c 2.3932,0 4.3333,1.9401 4.3333,4.3333 V 0 C 4.3333,2.3932 2.3932,4.3333 0,4.3333 -2.3932,4.3333 -4.3333,2.3932 -4.3333,0 -4.3333,-2.3932 -2.3932,-4.3333 0,-4.3333 Z M 0,-5 c -2.7614,0 -5,2.2386 -5,5 0,2.7614 2.2386,5 5,5 C 2.7614,5 5,2.7614 5,0 V 0 C 5,-2.7614 2.7614,-5 0,-5 Z"
         id="path1727" />
    </g>
    <g
       transform="translate(445.125,175.2345)"
       style="color-interpolation:linearRGB;fill:#e6001a;stroke:#e6001a;color-rendering:optimizeQuality;image-rendering:optimizeQuality;text-rendering:geometricPrecision"
       id="g1733">
      <circle
         r="4.6666999"
         style="stroke:none"
         cx="0"
         cy="0"
         id="circle1731" />
    </g>
    <g
       transform="translate(445.125,175.2345)"
       style="color-interpolation:linearRGB;fill:#e6001a;stroke:#e6001a;stroke-width:4;stroke-linecap:butt;stroke-linejoin:round;color-rendering:optimizeQuality;image-rendering:optimizeQuality;text-rendering:geometricPrecision"
       id="g1737">
      <path
         style="stroke:none"
         d="m 0,-4.3333 c 2.3932,0 4.3333,1.9401 4.3333,4.3333 V 0 C 4.3333,2.3932 2.3932,4.3333 0,4.3333 -2.3932,4.3333 -4.3333,2.3932 -4.3333,0 -4.3333,-2.3932 -2.3932,-4.3333 0,-4.3333 Z M 0,-5 c -2.7614,0 -5,2.2386 -5,5 0,2.7614 2.2386,5 5,5 C 2.7614,5 5,2.7614 5,0 V 0 C 5,-2.7614 2.7614,-5 0,-5 Z"
         id="path1735" />
    </g>
    <g
       transform="translate(477.885,193.8372)"
       style="color-interpolation:linearRGB;fill:#e6001a;stroke:#e6001a;color-rendering:optimizeQuality;image-rendering:optimizeQuality;text-rendering:geometricPrecision"
       id="g1741">
      <circle
         r="4.6666999"
         style="stroke:none"
         cx="0"
         cy="0"
         id="circle1739" />
    </g>
    <g
       transform="translate(477.885,193.8372)"
       style="color-interpolation:linearRGB;fill:#e6001a;stroke:#e6001a;stroke-width:4;stroke-linecap:butt;stroke-linejoin:round;color-rendering:optimizeQuality;image-rendering:optimizeQuality;text-rendering:geometricPrecision"
       id="g1745">
      <path
         style="stroke:none"
         d="m 0,-4.3333 c 2.3932,0 4.3333,1.9401 4.3333,4.3333 V 0 C 4.3333,2.3932 2.3932,4.3333 0,4.3333 -2.3932,4.3333 -4.3333,2.3932 -4.3333,0 -4.3333,-2.3932 -2.3932,-4.3333 0,-4.3333 Z M 0,-5 c -2.7614,0 -5,2.2386 -5,5 0,2.7614 2.2386,5 5,5 C 2.7614,5 5,2.7614 5,0 V 0 C 5,-2.7614 2.7614,-5 0,-5 Z"
         id="path1743" />
    </g>
    <g
       transform="translate(510.645,209.3587)"
       style="color-interpolation:linearRGB;fill:#e6001a;stroke:#e6001a;color-rendering:optimizeQuality;image-rendering:optimizeQuality;text-rendering:geometricPrecision"
       id="g1749">
      <circle
         r="4.6666999"
         style="stroke:none"
         cx="0"
         cy="0"
         id="circle1747" />
    </g>
    <g
       transform="translate(510.645,209.3587)"
       style="color-interpolation:linearRGB;fill:#e6001a;stroke:#e6001a;stroke-width:4;stroke-linecap:butt;stroke-linejoin:round;color-rendering:optimizeQuality;image-rendering:optimizeQuality;text-rendering:geometricPrecision"
       id="g1753">
      <path
         style="stroke:none"
         d="m 0,-4.3333 c 2.3932,0 4.3333,1.9401 4.3333,4.3333 V 0 C 4.3333,2.3932 2.3932,4.3333 0,4.3333 -2.3932,4.3333 -4.3333,2.3932 -4.3333,0 -4.3333,-2.3932 -2.3932,-4.3333 0,-4.3333 Z M 0,-5 c -2.7614,0 -5,2.2386 -5,5 0,2.7614 2.2386,5 5,5 C 2.7614,5 5,2.7614 5,0 V 0 C 5,-2.7614 2.7614,-5 0,-5 Z"
         id="path1751" />
    </g>
    <g
       transform="translate(547.5,214.2229)"
       style="color-interpolation:linearRGB;fill:#e6001a;stroke:#e6001a;color-rendering:optimizeQuality;image-rendering:optimizeQuality;text-rendering:geometricPrecision"
       id="g1757">
      <circle
         r="4.6666999"
         style="stroke:none"
         cx="0"
         cy="0"
         id="circle1755" />
    </g>
    <g
       transform="translate(547.5,214.2229)"
       style="color-interpolation:linearRGB;fill:#e6001a;stroke:#e6001a;stroke-width:4;stroke-linecap:butt;stroke-linejoin:round;color-rendering:optimizeQuality;image-rendering:optimizeQuality;text-rendering:geometricPrecision"
       id="g1761">
      <path
         style="stroke:none"
         d="m 0,-4.3333 c 2.3932,0 4.3333,1.9401 4.3333,4.3333 V 0 C 4.3333,2.3932 2.3932,4.3333 0,4.3333 -2.3932,4.3333 -4.3333,2.3932 -4.3333,0 -4.3333,-2.3932 -2.3932,-4.3333 0,-4.3333 Z M 0,-5 c -2.7614,0 -5,2.2386 -5,5 0,2.7614 2.2386,5 5,5 C 2.7614,5 5,2.7614 5,0 V 0 C 5,-2.7614 2.7614,-5 0,-5 Z"
         id="path1759" />
    </g>
    <g
       transform="translate(580.26,213.1083)"
       style="color-interpolation:linearRGB;fill:#e6001a;stroke:#e6001a;color-rendering:optimizeQuality;image-rendering:optimizeQuality;text-rendering:geometricPrecision"
       id="g1765">
      <circle
         r="4.6666999"
         style="stroke:none"
         cx="0"
         cy="0"
         id="circle1763" />
    </g>
    <g
       transform="translate(580.26,213.1083)"
       style="color-interpolation:linearRGB;fill:#e6001a;stroke:#e6001a;stroke-width:4;stroke-linecap:butt;stroke-linejoin:round;color-rendering:optimizeQuality;image-rendering:optimizeQuality;text-rendering:geometricPrecision"
       id="g1769">
      <path
         style="stroke:none"
         d="m 0,-4.3333 c 2.3932,0 4.3333,1.9401 4.3333,4.3333 V 0 C 4.3333,2.3932 2.3932,4.3333 0,4.3333 -2.3932,4.3333 -4.3333,2.3932 -4.3333,0 -4.3333,-2.3932 -2.3932,-4.3333 0,-4.3333 Z M 0,-5 c -2.7614,0 -5,2.2386 -5,5 0,2.7614 2.2386,5 5,5 C 2.7614,5 5,2.7614 5,0 V 0 C 5,-2.7614 2.7614,-5 0,-5 Z"
         id="path1767" />
    </g>
    <g
       transform="translate(613.02,212.2052)"
       style="color-interpolation:linearRGB;fill:#e6001a;stroke:#e6001a;color-rendering:optimizeQuality;image-rendering:optimizeQuality;text-rendering:geometricPrecision"
       id="g1773">
      <circle
         r="4.6666999"
         style="stroke:none"
         cx="0"
         cy="0"
         id="circle1771" />
    </g>
    <g
       transform="translate(613.02,212.2052)"
       style="color-interpolation:linearRGB;fill:#e6001a;stroke:#e6001a;stroke-width:4;stroke-linecap:butt;stroke-linejoin:round;color-rendering:optimizeQuality;image-rendering:optimizeQuality;text-rendering:geometricPrecision"
       id="g1777">
      <path
         style="stroke:none"
         d="m 0,-4.3333 c 2.3932,0 4.3333,1.9401 4.3333,4.3333 V 0 C 4.3333,2.3932 2.3932,4.3333 0,4.3333 -2.3932,4.3333 -4.3333,2.3932 -4.3333,0 -4.3333,-2.3932 -2.3932,-4.3333 0,-4.3333 Z M 0,-5 c -2.7614,0 -5,2.2386 -5,5 0,2.7614 2.2386,5 5,5 C 2.7614,5 5,2.7614 5,0 V 0 C 5,-2.7614 2.7614,-5 0,-5 Z"
         id="path1775" />
    </g>
    <g
       transform="translate(645.78,211.6374)"
       style="color-interpolation:linearRGB;fill:#e6001a;stroke:#e6001a;color-rendering:optimizeQuality;image-rendering:optimizeQuality;text-rendering:geometricPrecision"
       id="g1781">
      <circle
         r="4.6666999"
         style="stroke:none"
         cx="0"
         cy="0"
         id="circle1779" />
    </g>
    <g
       transform="translate(645.78,211.6374)"
       style="color-interpolation:linearRGB;fill:#e6001a;stroke:#e6001a;stroke-width:4;stroke-linecap:butt;stroke-linejoin:round;color-rendering:optimizeQuality;image-rendering:optimizeQuality;text-rendering:geometricPrecision"
       id="g1785">
      <path
         style="stroke:none"
         d="m 0,-4.3333 c 2.3932,0 4.3333,1.9401 4.3333,4.3333 V 0 C 4.3333,2.3932 2.3932,4.3333 0,4.3333 -2.3932,4.3333 -4.3333,2.3932 -4.3333,0 -4.3333,-2.3932 -2.3932,-4.3333 0,-4.3333 Z M 0,-5 c -2.7614,0 -5,2.2386 -5,5 0,2.7614 2.2386,5 5,5 C 2.7614,5 5,2.7614 5,0 V 0 C 5,-2.7614 2.7614,-5 0,-5 Z"
         id="path1783" />
    </g>
    <g
       transform="translate(682.635,211.2638)"
       style="color-interpolation:linearRGB;fill:#e6001a;stroke:#e6001a;color-rendering:optimizeQuality;image-rendering:optimizeQuality;text-rendering:geometricPrecision"
       id="g1789">
      <circle
         r="4.6666999"
         style="stroke:none"
         cx="0"
         cy="0"
         id="circle1787" />
    </g>
    <g
       transform="translate(682.635,211.2638)"
       style="color-interpolation:linearRGB;fill:#e6001a;stroke:#e6001a;stroke-width:4;stroke-linecap:butt;stroke-linejoin:round;color-rendering:optimizeQuality;image-rendering:optimizeQuality;text-rendering:geometricPrecision"
       id="g1793">
      <path
         style="stroke:none"
         d="m 0,-4.3333 c 2.3932,0 4.3333,1.9401 4.3333,4.3333 V 0 C 4.3333,2.3932 2.3932,4.3333 0,4.3333 -2.3932,4.3333 -4.3333,2.3932 -4.3333,0 -4.3333,-2.3932 -2.3932,-4.3333 0,-4.3333 Z M 0,-5 c -2.7614,0 -5,2.2386 -5,5 0,2.7614 2.2386,5 5,5 C 2.7614,5 5,2.7614 5,0 V 0 C 5,-2.7614 2.7614,-5 0,-5 Z"
         id="path1791" />
    </g>
    <g
       transform="translate(715.395,211.0784)"
       style="color-interpolation:linearRGB;fill:#e6001a;stroke:#e6001a;color-rendering:optimizeQuality;image-rendering:optimizeQuality;text-rendering:geometricPrecision"
       id="g1797">
      <circle
         r="4.6666999"
         style="stroke:none"
         cx="0"
         cy="0"
         id="circle1795" />
    </g>
    <g
       transform="translate(715.395,211.0784)"
       style="color-interpolation:linearRGB;fill:#e6001a;stroke:#e6001a;stroke-width:4;stroke-linecap:butt;stroke-linejoin:round;color-rendering:optimizeQuality;image-rendering:optimizeQuality;text-rendering:geometricPrecision"
       id="g1801">
      <path
         style="stroke:none"
         d="m 0,-4.3333 c 2.3932,0 4.3333,1.9401 4.3333,4.3333 V 0 C 4.3333,2.3932 2.3932,4.3333 0,4.3333 -2.3932,4.3333 -4.3333,2.3932 -4.3333,0 -4.3333,-2.3932 -2.3932,-4.3333 0,-4.3333 Z M 0,-5 c -2.7614,0 -5,2.2386 -5,5 0,2.7614 2.2386,5 5,5 C 2.7614,5 5,2.7614 5,0 V 0 C 5,-2.7614 2.7614,-5 0,-5 Z"
         id="path1799" />
    </g>
    <g
       transform="translate(748.155,210.9753)"
       style="color-interpolation:linearRGB;fill:#e6001a;stroke:#e6001a;color-rendering:optimizeQuality;image-rendering:optimizeQuality;text-rendering:geometricPrecision"
       id="g1805">
      <circle
         r="4.6666999"
         style="stroke:none"
         cx="0"
         cy="0"
         id="circle1803" />
    </g>
    <g
       transform="translate(748.155,210.9753)"
       style="color-interpolation:linearRGB;fill:#e6001a;stroke:#e6001a;stroke-width:4;stroke-linecap:butt;stroke-linejoin:round;color-rendering:optimizeQuality;image-rendering:optimizeQuality;text-rendering:geometricPrecision"
       id="g1809">
      <path
         style="stroke:none"
         d="m 0,-4.3333 c 2.3932,0 4.3333,1.9401 4.3333,4.3333 V 0 C 4.3333,2.3932 2.3932,4.3333 0,4.3333 -2.3932,4.3333 -4.3333,2.3932 -4.3333,0 -4.3333,-2.3932 -2.3932,-4.3333 0,-4.3333 Z M 0,-5 c -2.7614,0 -5,2.2386 -5,5 0,2.7614 2.2386,5 5,5 C 2.7614,5 5,2.7614 5,0 V 0 C 5,-2.7614 2.7614,-5 0,-5 Z"
         id="path1807" />
    </g>
    <g
       transform="translate(785.01,210.9155)"
       style="color-interpolation:linearRGB;fill:#e6001a;stroke:#e6001a;color-rendering:optimizeQuality;image-rendering:optimizeQuality;text-rendering:geometricPrecision"
       id="g1813">
      <circle
         r="4.6666999"
         style="stroke:none"
         cx="0"
         cy="0"
         id="circle1811" />
    </g>
    <g
       transform="translate(785.01,210.9155)"
       style="color-interpolation:linearRGB;fill:#e6001a;stroke:#e6001a;stroke-width:4;stroke-linecap:butt;stroke-linejoin:round;color-rendering:optimizeQuality;image-rendering:optimizeQuality;text-rendering:geometricPrecision"
       id="g1817">
      <path
         style="stroke:none"
         d="m 0,-4.3333 c 2.3932,0 4.3333,1.9401 4.3333,4.3333 V 0 C 4.3333,2.3932 2.3932,4.3333 0,4.3333 -2.3932,4.3333 -4.3333,2.3932 -4.3333,0 -4.3333,-2.3932 -2.3932,-4.3333 0,-4.3333 Z M 0,-5 c -2.7614,0 -5,2.2386 -5,5 0,2.7614 2.2386,5 5,5 C 2.7614,5 5,2.7614 5,0 V 0 C 5,-2.7614 2.7614,-5 0,-5 Z"
         id="path1815" />
    </g>
    <g
       transform="translate(817.77,210.89)"
       style="color-interpolation:linearRGB;fill:#e6001a;stroke:#e6001a;color-rendering:optimizeQuality;image-rendering:optimizeQuality;text-rendering:geometricPrecision"
       id="g1821">
      <circle
         r="4.6666999"
         style="stroke:none"
         cx="0"
         cy="0"
         id="circle1819" />
    </g>
    <g
       transform="translate(817.77,210.89)"
       style="color-interpolation:linearRGB;fill:#e6001a;stroke:#e6001a;stroke-width:4;stroke-linecap:butt;stroke-linejoin:round;color-rendering:optimizeQuality;image-rendering:optimizeQuality;text-rendering:geometricPrecision"
       id="g1825">
      <path
         style="stroke:none"
         d="m 0,-4.3333 c 2.3932,0 4.3333,1.9401 4.3333,4.3333 V 0 C 4.3333,2.3932 2.3932,4.3333 0,4.3333 -2.3932,4.3333 -4.3333,2.3932 -4.3333,0 -4.3333,-2.3932 -2.3932,-4.3333 0,-4.3333 Z M 0,-5 c -2.7614,0 -5,2.2386 -5,5 0,2.7614 2.2386,5 5,5 C 2.7614,5 5,2.7614 5,0 V 0 C 5,-2.7614 2.7614,-5 0,-5 Z"
         id="path1823" />
    </g>
    <g
       transform="translate(850.53,210.8793)"
       style="color-interpolation:linearRGB;fill:#e6001a;stroke:#e6001a;color-rendering:optimizeQuality;image-rendering:optimizeQuality;text-rendering:geometricPrecision"
       id="g1829">
      <circle
         r="4.6666999"
         style="stroke:none"
         cx="0"
         cy="0"
         id="circle1827" />
    </g>
    <g
       transform="translate(850.53,210.8793)"
       style="color-interpolation:linearRGB;fill:#e6001a;stroke:#e6001a;stroke-width:4;stroke-linecap:butt;stroke-linejoin:round;color-rendering:optimizeQuality;image-rendering:optimizeQuality;text-rendering:geometricPrecision"
       id="g1833">
      <path
         style="stroke:none"
         d="m 0,-4.3333 c 2.3932,0 4.3333,1.9401 4.3333,4.3333 V 0 C 4.3333,2.3932 2.3932,4.3333 0,4.3333 -2.3932,4.3333 -4.3333,2.3932 -4.3333,0 -4.3333,-2.3932 -2.3932,-4.3333 0,-4.3333 Z M 0,-5 c -2.7614,0 -5,2.2386 -5,5 0,2.7614 2.2386,5 5,5 C 2.7614,5 5,2.7614 5,0 V 0 C 5,-2.7614 2.7614,-5 0,-5 Z"
         id="path1831" />
    </g>
    <g
       transform="translate(883.29,210.8774)"
       style="color-interpolation:linearRGB;fill:#e6001a;stroke:#e6001a;color-rendering:optimizeQuality;image-rendering:optimizeQuality;text-rendering:geometricPrecision"
       id="g1837">
      <circle
         r="4.6666999"
         style="stroke:none"
         cx="0"
         cy="0"
         id="circle1835" />
    </g>
    <g
       transform="translate(883.29,210.8774)"
       style="color-interpolation:linearRGB;fill:#e6001a;stroke:#e6001a;stroke-width:4;stroke-linecap:butt;stroke-linejoin:round;color-rendering:optimizeQuality;image-rendering:optimizeQuality;text-rendering:geometricPrecision"
       id="g1841">
      <path
         style="stroke:none"
         d="m 0,-4.3333 c 2.3932,0 4.3333,1.9401 4.3333,4.3333 V 0 C 4.3333,2.3932 2.3932,4.3333 0,4.3333 -2.3932,4.3333 -4.3333,2.3932 -4.3333,0 -4.3333,-2.3932 -2.3932,-4.3333 0,-4.3333 Z M 0,-5 c -2.7614,0 -5,2.2386 -5,5 0,2.7614 2.2386,5 5,5 C 2.7614,5 5,2.7614 5,0 V 0 C 5,-2.7614 2.7614,-5 0,-5 Z"
         id="path1839" />
    </g>
    <g
       transform="translate(920.145,210.8791)"
       style="color-interpolation:linearRGB;fill:#e6001a;stroke:#e6001a;color-rendering:optimizeQuality;image-rendering:optimizeQuality;text-rendering:geometricPrecision"
       id="g1845">
      <circle
         r="4.6666999"
         style="stroke:none"
         cx="0"
         cy="0"
         id="circle1843" />
    </g>
    <g
       transform="translate(920.145,210.8791)"
       style="color-interpolation:linearRGB;fill:#e6001a;stroke:#e6001a;stroke-width:4;stroke-linecap:butt;stroke-linejoin:round;color-rendering:optimizeQuality;image-rendering:optimizeQuality;text-rendering:geometricPrecision"
       id="g1849">
      <path
         style="stroke:none"
         d="m 0,-4.3333 c 2.3932,0 4.3333,1.9401 4.3333,4.3333 V 0 C 4.3333,2.3932 2.3932,4.3333 0,4.3333 -2.3932,4.3333 -4.3333,2.3932 -4.3333,0 -4.3333,-2.3932 -2.3932,-4.3333 0,-4.3333 Z M 0,-5 c -2.7614,0 -5,2.2386 -5,5 0,2.7614 2.2386,5 5,5 C 2.7614,5 5,2.7614 5,0 V 0 C 5,-2.7614 2.7614,-5 0,-5 Z"
         id="path1847" />
    </g>
    <g
       transform="translate(952.905,210.8778)"
       style="color-interpolation:linearRGB;fill:#e6001a;stroke:#e6001a;color-rendering:optimizeQuality;image-rendering:optimizeQuality;text-rendering:geometricPrecision"
       id="g1853">
      <circle
         r="4.6666999"
         style="stroke:none"
         cx="0"
         cy="0"
         id="circle1851" />
    </g>
    <g
       transform="translate(952.905,210.8778)"
       style="color-interpolation:linearRGB;fill:#e6001a;stroke:#e6001a;stroke-width:4;stroke-linecap:butt;stroke-linejoin:round;color-rendering:optimizeQuality;image-rendering:optimizeQuality;text-rendering:geometricPrecision"
       id="g1857">
      <path
         style="stroke:none"
         d="m 0,-4.3333 c 2.3932,0 4.3333,1.9401 4.3333,4.3333 V 0 C 4.3333,2.3932 2.3932,4.3333 0,4.3333 -2.3932,4.3333 -4.3333,2.3932 -4.3333,0 -4.3333,-2.3932 -2.3932,-4.3333 0,-4.3333 Z M 0,-5 c -2.7614,0 -5,2.2386 -5,5 0,2.7614 2.2386,5 5,5 C 2.7614,5 5,2.7614 5,0 V 0 C 5,-2.7614 2.7614,-5 0,-5 Z"
         id="path1855" />
    </g>
    <g
       transform="translate(760.55,52.869)"
       style="font-size:28.8px;font-family:SansSerif;color-interpolation:linearRGB;color-rendering:optimizeQuality;image-rendering:optimizeQuality;text-rendering:geometricPrecision"
       id="g1861">
      <path
         style="stroke:none"
         d="M 2.8438,-11.1406 H 15 v 2.4062 H 5.7031 V -2.5 h 8.3907 v 2.4062 H 5.7031 V 10 H 2.8438 Z m 16.1798,14.875 v -9.5938 h 2.5937 v 9.5 q 0,2.25 0.8829,3.375 0.8828,1.125 2.6328,1.125 2.1093,0 3.3359,-1.3437 1.2266,-1.3438 1.2266,-3.6719 v -8.9844 h 2.6093 V 10 H 29.6955 V 7.5625 q -0.9532,1.4531 -2.2032,2.1484 -1.25,0.6953 -2.9062,0.6953 -2.7344,0 -4.1484,-1.6953 -1.4141,-1.6953 -1.4141,-4.9765 z m 18.5069,-15.7656 h 2.6093 V 10 h -2.6093 z m 7.9963,0 h 2.6094 V 10 h -2.6094 z m 17.2545,0.8906 h 4.2656 L 72.4375,3.25 77.8594,-11.1406 H 82.125 V 10 H 79.3438 V -8.5625 l -5.4532,14.5 h -2.875 l -5.4531,-14.5 V 10 h -2.7812 z m 30.8635,7.1094 q -2.0938,0 -3.3125,1.6328 -1.2188,1.6328 -1.2188,4.4765 0,2.8594 1.211,4.4922 1.2109,1.6328 3.3203,1.6328 2.0781,0 3.2969,-1.6406 1.2187,-1.6406 1.2187,-4.4844 0,-2.8125 -1.2187,-4.4609 -1.2188,-1.6484 -3.2969,-1.6484 z m 0,-2.2032 q 3.4062,0 5.3437,2.2032 1.9375,2.2031 1.9375,6.1093 0,3.9063 -1.9375,6.1172 -1.9375,2.2109 -5.3437,2.2109 -3.4063,0 -5.3438,-2.2109 -1.9375,-2.2109 -1.9375,-6.1172 0,-3.9062 1.9375,-6.1093 1.9375,-2.2032 5.3438,-2.2032 z m 21.9057,2.7813 v -8.5781 h 2.6094 V 10 h -2.6094 V 7.625 q -0.8281,1.4062 -2.0781,2.0938 -1.25,0.6874 -3.0157,0.6874 -2.8593,0 -4.6718,-2.289 -1.8125,-2.2891 -1.8125,-6.0391 0,-3.7343 1.8125,-6.0234 1.8125,-2.2891 4.6718,-2.2891 1.7657,0 3.0157,0.6797 1.25,0.6797 2.0781,2.1016 z m -8.875,5.5312 q 0,2.875 1.1797,4.5157 1.1797,1.6406 3.2422,1.6406 2.0781,0 3.2656,-1.6406 1.1875,-1.6407 1.1875,-4.5157 0,-2.875 -1.1875,-4.5078 -1.1875,-1.6328 -3.2656,-1.6328 -2.0625,0 -3.2422,1.6328 -1.1797,1.6328 -1.1797,4.5078 z m 30.2693,-0.6562 v 1.2656 h -11.9843 q 0.1718,2.7031 1.625,4.1094 1.4531,1.4062 4.0468,1.4062 1.5,0 2.9063,-0.3672 1.4062,-0.3671 2.7969,-1.1015 v 2.4531 q -1.4063,0.5937 -2.875,0.9063 -1.4688,0.3124 -2.9844,0.3124 -3.7969,0 -6.0156,-2.2031 Q 122.2417,6 122.2417,2.2188 q 0,-3.8907 2.1094,-6.1719 2.1094,-2.2813 5.6719,-2.2813 3.2031,0 5.0625,2.0547 1.8593,2.0547 1.8593,5.6016 z m -2.6093,-0.7657 q -0.0157,-2.1406 -1.1875,-3.414 -1.1719,-1.2734 -3.0938,-1.2734 -2.1875,0 -3.4922,1.2343 -1.3047,1.2344 -1.5078,3.4688 z m 6.7541,-12.6874 h 2.6093 V 10 h -2.6093 z"
         id="path1859" />
    </g>
    <g
       style="color-interpolation:linearRGB;stroke-width:4;stroke-linecap:butt;stroke-linejoin:round;color-rendering:optimizeQuality;image-rendering:optimizeQuality;text-rendering:geometricPrecision"
       id="g1865"
       transform="translate(-54)">
      <line
         y2="52.868999"
         style="fill:none"
         x1="754.79999"
         x2="802.59998"
         y1="52.868999"
         id="line1863" />
    </g>
    <g
       transform="translate(760.55,87.131)"
       style="font-size:28.8px;font-family:SansSerif;color-interpolation:linearRGB;color-rendering:optimizeQuality;image-rendering:optimizeQuality;text-rendering:geometricPrecision"
       id="g1869">
      <path
         style="stroke:none"
         d="m 2.8438,-11.1406 h 2.8593 v 8.9375 l 9.4844,-8.9375 H 18.875 L 8.3906,-1.2812 19.625,10 H 15.8594 L 5.7031,-0.1875 V 10 H 2.8438 Z M 35.1705,1.4219 V 2.6875 H 23.1861 q 0.1719,2.7031 1.625,4.1094 1.4532,1.4062 4.0469,1.4062 1.5,0 2.9063,-0.3672 1.4062,-0.3671 2.7968,-1.1015 v 2.4531 q -1.4062,0.5937 -2.875,0.9063 -1.4687,0.3124 -2.9843,0.3124 -3.7969,0 -6.0157,-2.2031 Q 20.4674,6 20.4674,2.2188 q 0,-3.8907 2.1094,-6.1719 2.1093,-2.2813 5.6718,-2.2813 3.2032,0 5.0625,2.0547 1.8594,2.0547 1.8594,5.6016 z M 32.5611,0.6562 q -0.0156,-2.1406 -1.1875,-3.414 -1.1718,-1.2734 -3.0937,-1.2734 -2.1875,0 -3.4922,1.2343 -1.3047,1.2344 -1.5078,3.4688 z m 15.9416,-4.0781 q -0.4375,-0.25 -0.9531,-0.375 -0.5156,-0.125 -1.1406,-0.125 -2.2031,0 -3.3906,1.4375 -1.1875,1.4375 -1.1875,4.125 V 10 H 39.2215 V -5.8594 h 2.6094 v 2.4688 q 0.8281,-1.4532 2.1406,-2.1485 1.3125,-0.6953 3.2031,-0.6953 0.2656,0 0.5938,0.0313 0.3281,0.0312 0.7187,0.1093 z M 64.3356,0.4219 V 10 H 61.7263 V 0.5156 q 0,-2.25 -0.875,-3.3672 -0.875,-1.1172 -2.6407,-1.1172 -2.1093,0 -3.3281,1.3438 -1.2187,1.3438 -1.2187,3.6562 V 10 H 51.0544 V -5.8594 h 2.6094 v 2.4688 q 0.9375,-1.4375 2.2031,-2.1406 1.2656,-0.7032 2.9219,-0.7032 2.7343,0 4.1406,1.6875 1.4062,1.6875 1.4062,4.9688 z m 18.6163,1 V 2.6875 H 70.9675 q 0.1719,2.7031 1.625,4.1094 1.4531,1.4062 4.0469,1.4062 1.5,0 2.9062,-0.3672 1.4063,-0.3671 2.7969,-1.1015 v 2.4531 q -1.4062,0.5937 -2.875,0.9063 -1.4687,0.3124 -2.9844,0.3124 -3.7968,0 -6.0156,-2.2031 Q 68.2488,6 68.2488,2.2188 q 0,-3.8907 2.1093,-6.1719 2.1094,-2.2813 5.6719,-2.2813 3.2031,0 5.0625,2.0547 1.8594,2.0547 1.8594,5.6016 z M 80.3425,0.6562 q -0.0156,-2.1406 -1.1875,-3.414 -1.1719,-1.2734 -3.0937,-1.2734 -2.1875,0 -3.4922,1.2343 -1.3047,1.2344 -1.5078,3.4688 z m 6.7541,-12.6874 H 89.706 V 10 h -2.6094 z m 17.2545,0.8906 h 4.2656 l 5.3906,14.3906 5.4219,-14.3906 h 4.2656 V 10 h -2.7812 V -8.5625 l -5.4532,14.5 h -2.875 l -5.4531,-14.5 V 10 h -2.7812 z m 30.8635,7.1094 q -2.0938,0 -3.3125,1.6328 -1.2188,1.6328 -1.2188,4.4765 0,2.8594 1.211,4.4922 1.2109,1.6328 3.3203,1.6328 2.0781,0 3.2968,-1.6406 1.2188,-1.6406 1.2188,-4.4844 0,-2.8125 -1.2188,-4.4609 -1.2187,-1.6484 -3.2968,-1.6484 z m 0,-2.2032 q 3.4062,0 5.3437,2.2032 1.9375,2.2031 1.9375,6.1093 0,3.9063 -1.9375,6.1172 -1.9375,2.2109 -5.3437,2.2109 -3.4063,0 -5.3438,-2.2109 -1.9375,-2.2109 -1.9375,-6.1172 0,-3.9062 1.9375,-6.1093 1.9375,-2.2032 5.3438,-2.2032 z m 21.9057,2.7813 v -8.5781 h 2.6094 V 10 h -2.6094 V 7.625 q -0.8281,1.4062 -2.0781,2.0938 -1.25,0.6874 -3.0157,0.6874 -2.8593,0 -4.6718,-2.289 -1.8125,-2.2891 -1.8125,-6.0391 0,-3.7343 1.8125,-6.0234 1.8125,-2.2891 4.6718,-2.2891 1.7657,0 3.0157,0.6797 1.25,0.6797 2.0781,2.1016 z m -8.875,5.5312 q 0,2.875 1.1797,4.5157 1.1797,1.6406 3.2422,1.6406 2.0781,0 3.2656,-1.6406 1.1875,-1.6407 1.1875,-4.5157 0,-2.875 -1.1875,-4.5078 -1.1875,-1.6328 -3.2656,-1.6328 -2.0625,0 -3.2422,1.6328 -1.1797,1.6328 -1.1797,4.5078 z m 30.2693,-0.6562 v 1.2656 h -11.9843 q 0.1718,2.7031 1.625,4.1094 1.4531,1.4062 4.0468,1.4062 1.5,0 2.9063,-0.3672 1.4062,-0.3671 2.7969,-1.1015 v 2.4531 q -1.4063,0.5937 -2.875,0.9063 -1.4688,0.3124 -2.9844,0.3124 -3.7969,0 -6.0156,-2.2031 Q 163.8115,6 163.8115,2.2188 q 0,-3.8907 2.1094,-6.1719 2.1094,-2.2813 5.6719,-2.2813 3.2031,0 5.0625,2.0547 1.8593,2.0547 1.8593,5.6016 z m -2.6093,-0.7657 q -0.0157,-2.1406 -1.1875,-3.414 -1.1719,-1.2734 -3.0938,-1.2734 -2.1875,0 -3.4922,1.2343 -1.3047,1.2344 -1.5078,3.4688 z m 6.754,-12.6874 h 2.6094 V 10 h -2.6094 z"
         id="path1867" />
    </g>
    <g
       transform="translate(724.7,87.131)"
       style="color-interpolation:linearRGB;fill:#e6001a;stroke:#e6001a;color-rendering:optimizeQuality;image-rendering:optimizeQuality;text-rendering:geometricPrecision"
       id="g1873">
      <circle
         r="4.6666999"
         style="stroke:none"
         cx="0"
         cy="0"
         id="circle1871" />
    </g>
    <g
       transform="translate(724.7,87.131)"
       style="color-interpolation:linearRGB;fill:#e6001a;stroke:#e6001a;stroke-width:4;stroke-linecap:butt;stroke-linejoin:round;color-rendering:optimizeQuality;image-rendering:optimizeQuality;text-rendering:geometricPrecision"
       id="g1877">
      <path
         style="stroke:none"
         d="m 0,-2.6667 c 1.4728,0 2.6667,1.1939 2.6667,2.6667 V 0 C 2.6667,1.4728 1.4728,2.6667 0,2.6667 -1.4728,2.6667 -2.6667,1.4728 -2.6667,0 c 0,-1.4728 1.1939,-2.6667 2.6667,-2.6667 z m 0,-4 c -3.6819,0 -6.6667,2.9848 -6.6667,6.6667 0,3.6819 2.9848,6.6667 6.6667,6.6667 C 3.6819,6.6667 6.6667,3.6819 6.6667,0 V 0 C 6.6667,-3.6819 3.6819,-6.6667 0,-6.6667 Z"
         id="path1875" />
    </g>
  </g>
</svg>
